<?xml version="1.0" standalone="no"?>
<!DOCTYPE svg PUBLIC "-//W3C//DTD SVG 20010904//EN"
 "http://www.w3.org/TR/2001/REC-SVG-20010904/DTD/svg10.dtd">
<svg version="1.0" xmlns="http://www.w3.org/2000/svg"
 width="444.000000pt" height="444.000000pt" viewBox="0 0 444.000000 444.000000"
 preserveAspectRatio="xMidYMid meet">
<metadata>
Created by potrace 1.11, written by Peter Selinger 2001-2013
</metadata>
<g transform="translate(0.000000,444.000000) scale(0.100000,-0.100000)"
fill="#000000" stroke="none">
<path d="M1049 4376 c-2 -2 -25 -7 -51 -10 -67 -9 -173 -43 -243 -79 -100 -50
-284 -181 -284 -202 0 -5 12 -24 27 -42 l27 -32 80 38 c116 56 187 74 292 77
168 4 333 -69 415 -183 70 -97 89 -197 92 -468 l1 -130 -125 -83 c-529 -351
-624 -412 -730 -466 -41 -22 -77 -40 -79 -42 -9 -8 -7 -105 3 -111 6 -4 55
-22 111 -40 209 -71 394 -175 524 -299 204 -192 275 -379 295 -772 1 -24 -2
-46 -7 -49 -4 -2 -43 -13 -85 -23 -143 -34 -276 -81 -397 -140 -142 -70 -246
-142 -415 -290 -31 -27 -207 -198 -238 -232 l-22 -25 37 -49 c20 -27 38 -51
39 -53 2 -2 20 10 41 26 155 121 355 222 543 277 99 28 239 51 436 72 54 5 62
4 65 -13 3 -10 4 -231 4 -491 l-1 -472 456 0 455 0 0 452 c0 249 1 461 3 471
4 14 12 17 46 12 22 -2 66 -7 96 -11 189 -21 430 -85 714 -188 97 -36 100 -36
120 -18 12 10 38 34 60 53 21 19 48 43 60 54 12 11 53 47 91 80 37 33 75 67
84 76 9 8 57 51 106 94 50 44 95 84 101 90 6 5 57 50 113 99 56 49 105 96 110
105 9 19 6 1649 -3 1766 -20 259 -79 399 -251 590 -123 138 -375 332 -691 534
l-82 52 -243 -159 c-134 -87 -283 -184 -331 -215 -47 -31 -90 -57 -95 -57 -4
0 -8 97 -8 215 l1 215 -57 0 -56 0 0 -252 1 -253 -140 -97 c-76 -54 -142 -98
-146 -98 -5 0 -9 17 -10 38 0 20 -2 42 -3 47 -1 6 -5 37 -9 69 -11 81 -47 186
-86 246 -73 113 -224 215 -395 265 -73 22 -116 28 -226 31 -74 2 -137 3 -140
0z m1696 -416 c400 -213 643 -412 726 -595 32 -71 57 -186 63 -285 l4 -69 -61
-39 c-208 -131 -336 -174 -532 -178 -210 -4 -353 40 -565 174 -30 19 -57 38
-60 42 -3 5 -5 184 -5 399 1 338 3 393 16 406 8 9 78 57 155 109 156 104 136
101 259 36z m-543 -1992 c0 -964 -1 -1761 -1 -1770 -1 -16 -15 -18 -146 -18
l-145 0 0 1680 0 1680 142 95 c78 52 144 92 147 90 2 -3 4 -793 3 -1757z
m-798 876 c1 -190 -1 -347 -4 -349 -3 -2 -38 27 -77 64 -98 91 -207 168 -336
236 -59 32 -106 59 -103 62 16 16 512 340 515 337 3 -3 5 -160 5 -350z m2134
-349 l0 -374 -57 28 c-227 115 -346 146 -551 145 -157 0 -238 -14 -365 -61
-54 -20 -197 -83 -245 -108 -3 -2 -5 163 -5 366 0 246 3 369 10 369 6 0 20 -7
32 -15 69 -48 243 -122 343 -146 62 -15 307 -19 385 -6 84 14 225 65 330 121
55 29 105 54 111 55 9 1 12 -98 12 -374z m-376 -333 c92 -25 207 -77 305 -138
l72 -45 -1 -409 c0 -226 -3 -410 -7 -410 -4 0 -63 24 -132 54 -200 86 -468
178 -589 202 -23 4 -76 15 -140 29 -14 2 -45 7 -70 10 -25 3 -56 8 -70 10 -14
2 -65 7 -114 10 -50 3 -92 8 -95 11 -3 3 -6 115 -6 250 l0 245 80 46 c44 25
94 54 112 64 40 22 163 67 206 75 18 3 50 9 72 13 75 15 294 5 377 -17z"/>
</g>
</svg>
